<svg width="40px" height="40px" viewBox="0 0 40 40" xmlns="http://www.w3.org/2000/svg" fill="currentColor" class="bi bi-trash2-fill"><path d="M5.092 8.063A1.667 1.667 0 0 1 5 7.5c0 -2.762 6.715 -5 15 -5s15 2.238 15 5a1.667 1.667 0 0 1 -0.092 0.563l-4.21 25.26a5 5 0 0 1 -4.937 4.177H14.235a5 5 0 0 1 -4.933 -4.177zM29.817 6.338C27.415 5.535 23.945 5 20 5c-3.95 0 -7.42 0.538 -9.815 1.335 -1.193 0.4 -1.988 0.818 -2.437 1.165 0.45 0.35 1.245 0.768 2.437 1.165C12.58 9.465 16.05 10 20 10s7.417 -0.538 9.815 -1.335c1.193 -0.4 1.988 -0.818 2.437 -1.165 -0.45 -0.35 -1.245 -0.768 -2.437 -1.165z"/></svg>